<svg width="50" height="56" viewBox="0 0 50 56" fill="none" xmlns="http://www.w3.org/2000/svg">
<g filter="url(#filter0_d)">
<path d="M16.5518 0.471996L15.2718 31.128H5.99175L4.71175 0.471996H16.5518ZM10.7918 47.512C8.87175 47.512 7.29308 46.9573 6.05575 45.848C4.86108 44.696 4.26375 43.288 4.26375 41.624C4.26375 39.9173 4.86108 38.488 6.05575 37.336C7.29308 36.184 8.87175 35.608 10.7918 35.608C12.6691 35.608 14.2051 36.184 15.3998 37.336C16.6371 38.488 17.2558 39.9173 17.2558 41.624C17.2558 43.288 16.6371 44.696 15.3998 45.848C14.2051 46.9573 12.6691 47.512 10.7918 47.512ZM32.2063 38.744L19.2143 24.6L32.2063 10.456H45.9663L32.9103 24.6L45.9663 38.744H32.2063Z" fill="black"/>
</g>
<defs>
<filter id="filter0_d" x="0.263733" y="0.472" width="49.7025" height="55.04" filterUnits="userSpaceOnUse" color-interpolation-filters="sRGB">
<feFlood flood-opacity="0" result="BackgroundImageFix"/>
<feColorMatrix in="SourceAlpha" type="matrix" values="0 0 0 0 0 0 0 0 0 0 0 0 0 0 0 0 0 0 127 0"/>
<feOffset dy="4"/>
<feGaussianBlur stdDeviation="2"/>
<feColorMatrix type="matrix" values="0 0 0 0 0 0 0 0 0 0 0 0 0 0 0 0 0 0 0.25 0"/>
<feBlend mode="normal" in2="BackgroundImageFix" result="effect1_dropShadow"/>
<feBlend mode="normal" in="SourceGraphic" in2="effect1_dropShadow" result="shape"/>
</filter>
</defs>
</svg>
